{
  "accessors": [
    {
      "bufferView": 2,
      "componentType": 5126,
      "count": 6466,
      "max": [
        9.409489631652832,
        8.2171449661254883,
        10.762784004211426
      ],
      "min": [
        -10.289218902587891,
        -11.876708984375,
        -7.570167064666748
      ],
      "type": "VEC3"
    },
    {
      "bufferView": 2,
      "byteOffset": 77592,
      "componentType": 5126,
      "count": 6466,
      "max": [
        0.99955672025680542,
        0.99928826093673706,
        0.99989521503448486
      ],
      "min": [
        -0.99995929002761841,
        -0.9993903636932373,
        -0.99982196092605591
      ],
      "type": "VEC3"
    },
    {
      "bufferView": 3,
      "componentType": 5126,
      "count": 6466,
      "max": [
        0.99968910217285156,
        0.97979766130447388,
        0.83999383449554443,
        1
      ],
      "min": [
        -0.99993634223937988,
        -0.99972271919250488,
        -0.92560297250747681,
        -1
      ],
      "type": "VEC4"
    },
    {
      "bufferView": 1,
      "componentType": 5126,
      "count": 6466,
      "max": [
        0.94138002395629883,
        0.99787002801895142
      ],
      "min": [
        0.18958699703216553,
        0.0090469997376203537
      ],
      "type": "VEC2"
    },
    {
      "bufferView": 0,
      "componentType": 5125,
      "count": 36555,
      "max": [
        6465
      ],
      "min": [
        0
      ],
      "type": "SCALAR"
    },
    {
      "bufferView": 2,
      "byteOffset": 155184,
      "componentType": 5126,
      "count": 108,
      "max": [
        4.204312801361084,
        0.60487502813339233,
        -6.5890779495239258
      ],
      "min": [
        -0.50432199239730835,
        -4.8474712371826172,
        -7.570167064666748
      ],
      "type": "VEC3"
    },
    {
      "bufferView": 2,
      "byteOffset": 156480,
      "componentType": 5126,
      "count": 108,
      "max": [
        0.20410387217998505,
        0.0001254208036698401,
        0.97897708415985107
      ],
      "min": [
        -0.2039923220872879,
        -4.5880424295319244e-05,
        -0.97900128364562988
      ],
      "type": "VEC3"
    },
    {
      "bufferView": 3,
      "byteOffset": 103456,
      "componentType": 5126,
      "count": 108,
      "max": [
        0,
        0,
        0,
        1
      ],
      "min": [
        0,
        0,
        0,
        1
      ],
      "type": "VEC4"
    },
    {
      "bufferView": 1,
      "byteOffset": 51728,
      "componentType": 5126,
      "count": 108,
      "max": [
        0,
        0
      ],
      "min": [
        0,
        0
      ],
      "type": "VEC2"
    },
    {
      "bufferView": 0,
      "byteOffset": 146220,
      "componentType": 5125,
      "count": 306,
      "max": [
        107
      ],
      "min": [
        0
      ],
      "type": "SCALAR"
    },
    {
      "bufferView": 2,
      "byteOffset": 157776,
      "componentType": 5126,
      "count": 689,
      "max": [
        4.8257298469543457,
        -2.0298559665679932,
        10.762784004211426
      ],
      "min": [
        -3.9202890396118164,
        -11.612574577331543,
        2.8958380222320557
      ],
      "type": "VEC3"
    },
    {
      "bufferView": 2,
      "byteOffset": 166044,
      "componentType": 5126,
      "count": 689,
      "max": [
        0.82281762361526489,
        0.62169039249420166,
        0.99963033199310303
      ],
      "min": [
        -0.89391905069351196,
        -0.99468314647674561,
        -0.062075089663267136
      ],
      "type": "VEC3"
    },
    {
      "bufferView": 3,
      "byteOffset": 105184,
      "componentType": 5126,
      "count": 689,
      "max": [
        0.96491163969039917,
        0.95996826887130737,
        0.80594778060913086,
        1
      ],
      "min": [
        0.0771045982837677,
        -0.68414264917373657,
        -0.61347794532775879,
        -1
      ],
      "type": "VEC4"
    },
    {
      "bufferView": 1,
      "byteOffset": 52592,
      "componentType": 5126,
      "count": 689,
      "max": [
        0.96617299318313599,
        0.99140101671218872
      ],
      "min": [
        0.4882969856262207,
        0.55810302495956421
      ],
      "type": "VEC2"
    },
    {
      "bufferView": 0,
      "byteOffset": 147444,
      "componentType": 5125,
      "count": 3885,
      "max": [
        688
      ],
      "min": [
        0
      ],
      "type": "SCALAR"
    }
  ],
  "asset": {
    "extras": {
      "author": "Thomas Flynn (https://sketchfab.com/nebulousflynn)",
      "license": "CC-BY-4.0 (http://creativecommons.org/licenses/by/4.0/)",
      "source": "https://sketchfab.com/models/05197c7001b343e183e561c66134c951",
      "title": "Gourd"
    },
    "generator": "Sketchfab-3.18.7",
    "version": "2.0"
  },
  "bufferViews": [
    {
      "buffer": 0,
      "byteLength": 162984,
      "byteOffset": 0,
      "name": "floatBufferViews",
      "target": 34963
    },
    {
      "buffer": 0,
      "byteLength": 58104,
      "byteOffset": 162984,
      "byteStride": 8,
      "name": "floatBufferViews",
      "target": 34962
    },
    {
      "buffer": 0,
      "byteLength": 174312,
      "byteOffset": 221088,
      "byteStride": 12,
      "name": "floatBufferViews",
      "target": 34962
    },
    {
      "buffer": 0,
      "byteLength": 116208,
      "byteOffset": 395400,
      "byteStride": 16,
      "name": "floatBufferViews",
      "target": 34962
    }
  ],
  "buffers": [
    {
      "byteLength": 511608,
      "uri": "scene.bin"
    }
  ],
  "images": [
    {
      "uri": "textures/Texture_1_tex_1.jpg_baseColor.jpeg"
    },
    {
      "uri": "textures/Texture_1_baseColor.jpeg"
    },
    {
      "uri": "textures/Texture_0_baseColor.jpeg"
    }
  ],
  "materials": [
    {
      "doubleSided": true,
      "emissiveFactor": [
        0,
        0,
        0
      ],
      "name": "Texture_0",
      "pbrMetallicRoughness": {
        "baseColorFactor": [
          1,
          1,
          1,
          1
        ],
        "baseColorTexture": {
          "index": 2,
          "texCoord": 0
        },
        "metallicFactor": 0,
        "roughnessFactor": 0.59999999999999998
      }
    },
    {
      "doubleSided": true,
      "emissiveFactor": [
        0,
        0,
        0
      ],
      "name": "Texture_1",
      "pbrMetallicRoughness": {
        "baseColorFactor": [
          1,
          1,
          1,
          1
        ],
        "baseColorTexture": {
          "index": 1,
          "texCoord": 0
        },
        "metallicFactor": 0,
        "roughnessFactor": 0.59999999999999998
      }
    },
    {
      "doubleSided": true,
      "emissiveFactor": [
        0,
        0,
        0
      ],
      "name": "Texture_1_tex_1.jpg",
      "pbrMetallicRoughness": {
        "baseColorFactor": [
          1,
          1,
          1,
          1
        ],
        "baseColorTexture": {
          "index": 0,
          "texCoord": 0
        },
        "metallicFactor": 0,
        "roughnessFactor": 0.59999999999999998
      }
    }
  ],
  "meshes": [
    {
      "primitives": [
        {
          "attributes": {
            "NORMAL": 1,
            "POSITION": 0,
            "TANGENT": 2,
            "TEXCOORD_0": 3
          },
          "indices": 4,
          "material": 0,
          "mode": 4
        }
      ]
    },
    {
      "primitives": [
        {
          "attributes": {
            "NORMAL": 6,
            "POSITION": 5,
            "TANGENT": 7,
            "TEXCOORD_0": 8
          },
          "indices": 9,
          "material": 1,
          "mode": 4
        }
      ]
    },
    {
      "primitives": [
        {
          "attributes": {
            "NORMAL": 11,
            "POSITION": 10,
            "TANGENT": 12,
            "TEXCOORD_0": 13
          },
          "indices": 14,
          "material": 2,
          "mode": 4
        }
      ]
    }
  ],
  "nodes": [
    {
      "children": [
        1
      ],
      "name": "RootNode (gltf orientation matrix)",
      "rotation": [
        -0.70710678118654746,
        -0,
        -0,
        0.70710678118654757
      ]
    },
    {
      "children": [
        2
      ],
      "matrix": [
        -1,
        0,
        0,
        0,
        0,
        -1,
        0,
        0,
        0,
        0,
        1,
        0,
        0,
        0,
        0,
        1
      ],
      "name": "RootNode (model correction matrix)"
    },
    {
      "children": [
        3,
        4,
        5
      ],
      "name": "gourd.obj.cleaner.materialmerger.gles"
    },
    {
      "mesh": 0,
      "name": ""
    },
    {
      "mesh": 1,
      "name": ""
    },
    {
      "mesh": 2,
      "name": ""
    }
  ],
  "samplers": [
    {
      "magFilter": 9729,
      "minFilter": 9987,
      "wrapS": 10497,
      "wrapT": 10497
    }
  ],
  "scene": 0,
  "scenes": [
    {
      "name": "OSG_Scene",
      "nodes": [
        0
      ]
    }
  ],
  "textures": [
    {
      "sampler": 0,
      "source": 0
    },
    {
      "sampler": 0,
      "source": 1
    },
    {
      "sampler": 0,
      "source": 2
    }
  ]
}

